# AST/ASF file generated using VICON BodyLanguage
# -----------------------------------------------
:version 1.10
:name VICON
:units
  mass 1.0
  length 0.45
  angle deg
:documentation
   .ast/.asf automatically generated from VICON data using
   VICON BodyBuilder and BodyLanguage model FoxedUp or BRILLIANT.MOD
:root
   order TX TY TZ RX RY RZ
   axis XYZ
   position 0 0 0  
   orientation 0 0 0 
:bonedata
  begin
     id 1 
     name lhipjoint
     direction 0.635376 -0.686425 0.353719 
     length 2.47244 
     axis 0 0 0  XYZ
  end
  begin
     id 2 
     name lfemur
     direction 0.34202 -0.939693 0  
     length 7.25268  
     axis 0 0 20  XYZ
    dof rx ry rz
    limits (-160.0 20.0)
           (-70.0 70.0)
           (-60.0 70.0)
  end
  begin
     id 3 
     name ltibia
     direction 0.34202 -0.939693 0   
     length 7.6767   
     axis 0 0 20   XYZ
    dof rx
    limits (-10.0 170.0)
  end
  begin
     id 4 
     name lfoot
     direction 0.0803374 -0.220725 0.972022   
     length 2.22945   
     axis -90 7.62852e-016 20   XYZ
    dof rx rz
    limits (-45.0 90.0)
           (-70.0 20.0)
  end
  begin
     id 5 
     name ltoes
     direction 1.53579e-011 -4.21994e-011 1   
     length 1.11848   
     axis -90 7.62852e-016 20   XYZ
    dof rx
    limits (-90.0 20.0)
  end
  begin
     id 6 
     name rhipjoint
     direction -0.664428 -0.664335 0.342336   
     length 2.55466  
     axis 0 0 0  XYZ 
  end
  begin
     id 7 
     name rfemur
     direction -0.34202 -0.939693 0   
     length 6.83172   
     axis 0 0 -20   XYZ
    dof rx ry rz
    limits (-160.0 20.0)
           (-70.0 70.0)
           (-70.0 60.0)
  end
  begin
     id 8 
     name rtibia
     direction -0.34202 -0.939693 0   
     length 7.62692   
     axis 0 0 -20   XYZ
    dof rx
    limits (-10.0 170.0)
 end
 begin
     id 9 
     name rfoot
     direction -0.0949276 -0.260811 0.960711   
     length 2.19684  
     axis -90 -7.62852e-016 -20   XYZ
    dof rx rz
    limits (-45.0 90.0)
           (-20.0 70.0)
  end
  begin
     id 10 
     name rtoes
     direction -1.53543e-011 -4.2183e-011 1   
     length 1.09848   
     axis -90 -7.62852e-016 -20   XYZ
    dof rx
    limits (-90.0 20.0)
  end
  begin
     id 11 
     name lowerback
     direction 0.0118782 0.999815 -0.0151555   
     length 2.15772   
     axis 0 0 0   XYZ
    dof rx ry rz
    limits (-20.0 45.0)
           (-30.0 30.0)
           (-30.0 30.0)
  end
  begin
     id 12 
     name upperback
     direction 0.00130825 0.999065 0.0432113   
     length 2.14863   
     axis 0 0 0   XYZ
    dof rx ry rz
    limits (-20.0 45.0)
           (-30.0 30.0)
           (-30.0 30.0)
  end
  begin
     id 13 
     name thorax
     direction -0.00347005 0.998773 0.0494011   
     length 2.14936   
     axis 0 0 0   XYZ
    dof rx ry rz
    limits (-20.0 45.0)
           (-30.0 30.0)
           (-30.0 30.0)
  end
  begin
     id 14 
     name lowerneck
     direction -0.0262159 0.99424 0.103921   
     length 1.69373   
     axis 0 0 0   XYZ
    dof rx ry rz
    limits (-20.0 45.0)
           (-30.0 30.0)
           (-30.0 30.0)
  end
  begin
     id 15 
     name upperneck
     direction 0.0353511 0.977394 -0.20845   
     length 1.70857   
     axis 0 0 0   XYZ
    dof rx ry rz
    limits (-20.0 45.0)
           (-30.0 30.0)
           (-30.0 30.0)
  end
  begin
     id 16
     name head
     direction 0.0139214 0.996594 -0.0812836  
     length 1.72777  
     axis 0 0 0   XYZ
    dof rx ry rz
    limits (-20.0 45.0)
           (-30.0 30.0)
           (-30.0 30.0)
  end
  begin
     id 17 
     name lclavicle
     direction 0.841247 0.537205 -0.0609508  
     length 3.55371  
     axis 0 0 0   XYZ
    dof ry rz
    limits (-20.0 10.0)
           (0.0 20.0)
  end
  begin
     id 18 
     name lhumerus
     direction 1 -4.48964e-011 1.60116e-018   
     length 4.91377   
     axis -180 -30 -90   XYZ
    dof rx ry rz
    limits (-60.0 90.0)
           (-90.0 90.0)
           (-90.0 90.0)
  end
  begin
     id 19
     name lradius
     direction 1 -4.48989e-011 -8.93847e-027   
     length 3.00291   
     axis -180 -30 -90   XYZ
    dof rx
    limits (-10.0 170.0)
  end
  begin
     id 20
     name lwrist
     direction 1 -4.48932e-011 -7.31504e-027   
     length 1.50145   
     axis 5.74121e-015 90 90   XYZ
    dof ry
    limits (-180.0 0.0)
 end
  begin
     id 21 
     name lhand
     direction 1 -4.48971e-011 -1.46301e-026   
     length 0.450922   
     axis 9.33524e-015 90 90   XYZ
    dof rx rz
    limits (-90.0 90.0)
           (-45.0 45.0)
  end
  begin
     id 22 
     name lfingers
     direction 1 -4.49039e-011 -2.92602e-026   
     length 0.363545   
     axis 1.86705e-014 90 90   XYZ
    dof rx
    limits (0.0 90.0)
  end
  begin
     id 23
     name lthumb
     direction 0.707107 -6.34941e-011 0.707107   
     length 0.52198   
     axis -90 45 2.85299e-015   XYZ
    dof rx rz
    limits (-45.0 45.0)
           (-45.0 45.0)
  end
  begin
     id 24 
     name rclavicle
     direction -0.825079 0.56158 -0.0622297   
     length 3.39909  
     axis 0 0 0   XYZ 
    dof ry rz
    limits (-10.0 20.0)
           (-20.0 0.0)
  end
  begin
     id 25 
     name rhumerus
     direction -1 -4.48965e-011 1.61691e-027  
     length 4.86725   
     axis -180 30 90   XYZ
    dof rx ry rz
    limits (-90.0 60.0)
           (-90.0 90.0)
           (-90.0 90.0)
  end
  begin
     id 26 
     name rradius
     direction -1 -4.48964e-011 -2.25776e-027   
     length 3.17144   
     axis -180 30 90   XYZ
    dof rx
    limits (-10.0 170.0)
  end
  begin
     id 27 
     name rwrist
     direction -1 -4.48961e-011 -7.31504e-027   
     length 1.58572   
     axis 5.74121e-015 -90 -90   XYZ
    dof ry
    limits (-180.0 0.0)
  end
  begin
     id 28
     name rhand
     direction -1 -4.49013e-011 -1.46301e-026   
     length 0.419368   
     axis 9.33524e-015 -90 -90   XYZ
    dof rx rz
    limits (-90.0 90.0)
           (-45.0 45.0)
  end
  begin
     id 29
     name rfingers
     direction -1 -4.489e-011 -2.92602e-026   
     length 0.338105   
     axis 1.86705e-014 -90 -90   XYZ
    dof rx
    limits (0.0 90.0)
  end
  begin
     id 30
     name rthumb
     direction -0.707107 -6.35022e-011 0.707107   
     length 0.485453   
     axis -90 -45 -2.85299e-015   XYZ
    dof rx rz
    limits (-45.0 45.0)
           (-45.0 45.0)
  end
:hierarchy
  begin
    root lhipjoint rhipjoint lowerback
    lhipjoint lfemur
    lfemur ltibia
    ltibia lfoot
    lfoot ltoes
    rhipjoint rfemur
    rfemur rtibia
    rtibia rfoot
    rfoot rtoes
    lowerback upperback
    upperback thorax
    thorax lowerneck lclavicle rclavicle
    lowerneck upperneck
    upperneck head
    lclavicle lhumerus
    lhumerus lradius
    lradius lwrist
    lwrist lhand lthumb
    lhand lfingers
    rclavicle rhumerus
    rhumerus rradius
    rradius rwrist
    rwrist rhand rthumb
    rhand rfingers
  end

#!OML:ASF H:\Swim 2\Project 1\Capture day 1\Session 1\male.ASF
:FULLY-SPECIFIED
:DEGREES
946
root 0.190894 14.267 6.97245 93.3156 6.14896 -0.503838
lowerback -19.2397 -1.55593 -1.62039
upperback -8.49675 -1.92154 3.82
thorax 1.78995 -0.87323 4.59213
lowerneck -23.6601 -1.70386 -4.11154
upperneck 1.74687 -1.54181 5.02392
head 4.27211 -0.462051 2.09433
rclavicle 6.55989e-015 5.96354e-015
rhumerus -24.7743 -56.6511 15.0904
rradius 20.5239
rwrist -13.7618
rhand 35.0442 -8.81739
rfingers 7.12502
rthumb 58.1757 -24.3801
lclavicle 6.55989e-015 5.96354e-015
lhumerus -182.82 68.1324 -177.824
lradius 14.8116
lwrist -78.5073
lhand -22.427 4.76714
lfingers 7.12502
lthumb 3.99646 34.7094
rfemur -37.6096 -5.4961 22.3524
rtibia 60.134
rfoot 18.3868 -0.943175
rtoes 19.4027
lfemur -38.5508 -0.359434 -23.1101
ltibia 62.3198
lfoot -1.52507 -1.66721
ltoes -14.0172
947
root 0.204445 14.2881 6.94708 92.9198 6.08042 -0.55996
lowerback -19.1815 -1.57538 -1.61559
upperback -8.61233 -1.9466 3.82261
thorax 1.63811 -0.882608 4.58906
lowerneck -23.9031 -1.60502 -3.83451
upperneck 3.25732 -1.51461 4.86201
head 4.78107 -0.446022 2.00415
rclavicle 1.21259e-014 -2.92213e-014
rhumerus -22.4611 -58.8171 15.2245
rradius 20.5863
rwrist -13.5544
rhand 34.6586 -9.15524
rfingers 7.12502
rthumb 57.8394 -25.0199
lclavicle 1.21259e-014 -2.92213e-014
lhumerus -188.392 71.7324 -184.642
lradius 14.5908
lwrist -74.3778
lhand -22.4052 4.60034
lfingers 7.12502
lthumb 4.0175 34.5422
rfemur -37.7667 -5.80765 22.2047
rtibia 61.9082
rfoot 18.3201 -0.918735
rtoes 19.5489
lfemur -38.0762 0.1711 -23.7353
ltibia 64.8811
lfoot -1.10638 -2.24477
ltoes -13.6334
948
root 0.218851 14.3112 6.92276 92.5559 6.04609 -0.607085
lowerback -19.1039 -1.59189 -1.57141
upperback -8.74272 -1.9746 3.83276
thorax 1.45989 -0.893907 4.57149
lowerneck -24.1615 -1.49174 -3.52976
upperneck 4.85857 -1.47279 4.64839
head 5.32468 -0.424691 1.89581
rclavicle -4.17448e-015 8.24956e-015
rhumerus -19.4026 -60.3867 14.5004
rradius 20.7154
rwrist -13.7689
rhand 34.2209 -9.42745
rfingers 7.12502
rthumb 57.4564 -25.6268
lclavicle -4.17448e-015 8.24956e-015
lhumerus -197.447 75.7235 -195.048
lradius 14.365
lwrist -68.5688
lhand -22.5638 4.31046
lfingers 7.12502
lthumb 3.86433 34.2552
rfemur -37.9412 -6.17589 22.1055
rtibia 63.6765
rfoot 18.2675 -0.894967
rtoes 19.7194
lfemur -37.6385 0.727744 -24.2959
ltibia 67.471
lfoot -0.723773 -2.77639
ltoes -13.102
949
root 0.234065 14.3357 6.89954 92.2268 6.06408 -0.64641
lowerback -19.0184 -1.60263 -1.47976
upperback -8.87786 -2.00334 3.861
thorax 1.27188 -0.90652 4.54638
lowerneck -24.4308 -1.37455 -3.22263
upperneck 6.50289 -1.42193 4.40132
head 5.8889 -0.4008 1.77832
rclavicle 9.34288e-015 -1.19271e-015
rhumerus -15.6996 -61.2753 13.0451
rradius 20.9296
rwrist -14.4615
rhand 33.7434 -9.58789
rfingers 7.12502
rthumb 57.0373 -26.1428
lclavicle 9.34288e-015 -1.19271e-015
lhumerus -214.495 79.5069 -213.571
lradius 14.1904
lwrist -61.4443
lhand -22.8176 3.97212
lfingers 7.12502
lthumb 3.61927 33.9211
rfemur -38.1224 -6.59059 22.0726
rtibia 65.4281
rfoot 18.2096 -0.899438
rtoes 19.6816
lfemur -37.2448 1.30012 -24.7649
ltibia 70.0758
lfoot -0.381637 -3.2848
ltoes -12.4242
950
root 0.249976 14.361 6.8784 91.9302 6.13822 -0.685612
lowerback -18.9188 -1.60165 -1.34263
upperback -9.01921 -2.02398 3.9112
thorax 1.06855 -0.91581 4.52098
lowerneck -24.6928 -1.25788 -2.92061
upperneck 8.14451 -1.36417 4.12811
head 6.45736 -0.376099 1.65451
rclavicle -2.32578e-014 1.66979e-014
rhumerus -11.5334 -61.7255 11.1403
rradius 21.1633
rwrist -15.3401
rhand 33.2953 -9.67368
rfingers 7.12502
rthumb 56.6427 -26.5535
lclavicle -2.32578e-014 1.66979e-014
lhumerus -246.059 81.592 -246.741
lradius 14.1114
lwrist -53.5627
lhand -23.0626 3.66783
lfingers 7.12502
lthumb 3.38269 33.6207
rfemur -38.2926 -7.03579 22.1062
rtibia 67.1544
rfoot 18.2108 -0.911922
rtoes 19.6127
lfemur -36.8912 1.89522 -25.1329
ltibia 72.6771
lfoot -0.0724915 -3.79623
ltoes -11.562
951
root 0.266335 14.3861 6.86036 91.6673 6.25053 -0.716444
lowerback -18.8108 -1.59323 -1.18987
upperback -9.16295 -2.03677 3.9828
thorax 0.85772 -0.921258 4.51157
lowerneck -24.9219 -1.15907 -2.66341
upperneck 9.72932 -1.31374 3.86748
head 7.00985 -0.356385 1.54105
rclavicle 2.42517e-014 -3.10104e-014
rhumerus -7.12118 -61.7211 9.02138
rradius 21.4437
rwrist -16.4316
rhand 32.9146 -9.75127
rfingers 7.12502
rthumb 56.3065 -26.9008
lclavicle 2.42517e-014 -3.10104e-014
lhumerus -280.776 80.3046 -283.186
lradius 14.1361
lwrist -45.5598
lhand -23.2611 3.45007
lfingers 7.12502
lthumb 3.19096 33.4059
rfemur -38.4598 -7.51735 22.1896
rtibia 68.8678
rfoot 18.3372 -0.900402
rtoes 19.494
lfemur -36.5626 2.49125 -25.4128
ltibia 75.2447
lfoot 0.213459 -4.31289
ltoes -10.4459
952
root 0.282382 14.4104 6.84498 91.4347 6.36981 -0.750128
lowerback -18.6969 -1.57785 -1.05763
upperback -9.30228 -2.03594 4.06773
thorax 0.648227 -0.919047 4.53113
lowerneck -25.0898 -1.07861 -2.47029
upperneck 11.2112 -1.26812 3.64476
head 7.52629 -0.339587 1.44931
rclavicle 1.74931e-014 -2.19657e-014
rhumerus -2.69276 -61.328 6.91916
rradius 21.7873
rwrist -17.6737
rhand 32.62 -9.90937
rfingers 7.12502
rthumb 56.0457 -27.2636
lclavicle 1.74931e-014 -2.19657e-014
lhumerus -300.742 76.6553 -305.004
lradius 14.2428
lwrist -37.9768
lhand -23.3901 3.39689
lfingers 7.12502
lthumb 3.06638 33.3546
rfemur -38.6165 -8.01843 22.2863
rtibia 70.5772
rfoot 18.5332 -0.802698
rtoes 19.3014
lfemur -36.2501 3.08912 -25.6343
ltibia 77.7603
lfoot 0.534353 -4.80939
ltoes -8.94845
953
root 0.297594 14.4333 6.83242 91.2433 6.48469 -0.780689
lowerback -18.5931 -1.56128 -0.96031
upperback -9.43215 -2.02716 4.16335
thorax 0.454521 -0.911752 4.58352
lowerneck -25.2281 -1.0174 -2.34764
upperneck 12.6011 -1.22857 3.47156
head 8.01436 -0.325292 1.38426
rclavicle -2.0276e-014 5.2181e-014
rhumerus 1.6112 -60.6276 4.98066
rradius 22.1985
rwrist -19.0749
rhand 32.4731 -10.227
rfingers 7.12502
rthumb 55.9156 -27.6821
lclavicle -2.0276e-014 5.2181e-014
lhumerus -310.611 72.2144 -316.852
lradius 14.4005
lwrist -31.1088
lhand -23.503 3.51098
lfingers 7.12502
lthumb 2.9573 33.4702
rfemur -38.775 -8.53753 22.3846
rtibia 72.2955
rfoot 18.8675 -0.615085
rtoes 19.2375
lfemur -35.9619 3.67594 -25.8081
ltibia 80.2093
lfoot 0.89897 -5.28283
ltoes -7.22913
954
root 0.311233 14.4545 6.82097 91.103 6.5917 -0.800644
lowerback -18.5115 -1.54968 -0.900734
upperback -9.54629 -2.01883 4.26443
thorax 0.290123 -0.903788 4.6628
lowerneck -25.3778 -0.970735 -2.295
upperneck 13.9205 -1.19285 3.36473
head 8.48735 -0.310293 1.35246
rclavicle 8.74653e-015 -2.78299e-015
rhumerus 5.70403 -59.7464 3.26552
rradius 22.6917
rwrist -20.5836
rhand 32.4235 -10.7222
rfingers 7.12502
rthumb 55.8716 -28.2111
lclavicle 8.74653e-015 -2.78299e-015
lhumerus -315.993 67.552 -324.366
lradius 14.5811
lwrist -25.0224
lhand -23.6484 3.77379
lfingers 7.12502
lthumb 2.81693 33.7349
rfemur -38.9348 -9.06751 22.4774
rtibia 74.0238
rfoot 19.3229 -0.375374
rtoes 19.4516
lfemur -35.7214 4.23756 -25.9405
ltibia 82.5964
lfoot 1.29507 -5.72943
ltoes -5.50054
